<svg xmlns="http://www.w3.org/2000/svg" width="24" height="14" viewBox="0 0 24 14">
  <metadata><?xpacket begin="﻿" id="W5M0MpCehiHzreSzNTczkc9d"?>
<x:xmpmeta xmlns:x="adobe:ns:meta/" x:xmptk="Adobe XMP Core 5.6-c138 79.159824, 2016/09/14-01:09:01        ">
   <rdf:RDF xmlns:rdf="http://www.w3.org/1999/02/22-rdf-syntax-ns#">
      <rdf:Description rdf:about=""/>
   </rdf:RDF>
</x:xmpmeta>
                                                                                                    
                                                                                                    
                                                                                                    
                                                                                                    
                                                                                                    
                                                                                                    
                                                                                                    
                                                                                                    
                                                                                                    
                                                                                                    
                                                                                                    
                                                                                                    
                                                                                                    
                                                                                                    
                                                                                                    
                                                                                                    
                                                                                                    
                                                                                                    
                                                                                                    
                                                                                                    
                           
<?xpacket end="w"?></metadata>
<defs>
    <style>
      .cls-1 {
        fill: #c2c2c2;
        fill-rule: evenodd;
      }
    </style>
  </defs>
  <path id="Eye_Shape_Variant._Attribute_as_Amit_Jakhu_from_Flaticon.com" data-name="Eye Shape Variant. Attribute as Amit Jakhu from Flaticon.com" class="cls-1" d="M23.836,6.47C23.659,6.206,19.412,0,12,0S0.337,6.206.16,6.47a0.953,0.953,0,0,0,0,1.06C0.337,7.794,4.584,14,12,14S23.659,7.794,23.836,7.53A0.953,0.953,0,0,0,23.836,6.47ZM12,12.1C6.791,12.1,3.275,8.4,2.132,7c1.14-1.4,4.64-5.1,9.867-5.1,5.207,0,8.723,3.7,9.866,5.1C20.725,8.405,17.225,12.1,12,12.1Zm0-9.536a4.372,4.372,0,0,0-2.652.89,4.451,4.451,0,0,0-.874,6.208,4.422,4.422,0,0,0,7.057-5.329A4.373,4.373,0,0,0,12,2.566Zm2.971,4.855A2.994,2.994,0,0,1,13.8,9.406a2.988,2.988,0,0,1-4.2-.6A3.022,3.022,0,0,1,10.2,4.594a2.989,2.989,0,0,1,4.2.6A3,3,0,0,1,14.966,7.422Zm-1.961-2.38a0.958,0.958,0,0,0-.668.278,0.953,0.953,0,0,0,0,1.342,0.945,0.945,0,0,0,1.613-.671A0.946,0.946,0,0,0,13.005,5.042Z"/>
</svg>
